HIERARCHY
ROOT Hips
{
	OFFSET 0.000000 0.000000 0.000000
	CHANNELS 6 Xposition Yposition Zposition Xrotation Yrotation Zrotation
	JOINT LeftUpLeg_virtual
	{
		OFFSET 0.000000 0.000000 0.000000
		CHANNELS 3 Xrotation Yrotation Zrotation
		JOINT LeftUpLeg
		{
			OFFSET 13.026900 -6.336304 -1.092800
			CHANNELS 3 Xrotation Yrotation Zrotation
			JOINT LeftLeg
			{
				OFFSET 0.524474 -46.096886 9.782700
				CHANNELS 3 Xrotation Yrotation Zrotation
				JOINT LeftFoot
				{
					OFFSET -0.524474 -53.427422 -12.948200
					CHANNELS 3 Xrotation Yrotation Zrotation
					JOINT LeftToeBase
					{
						OFFSET 0.192200 -14.009700 16.364100
						CHANNELS 3 Xrotation Yrotation Zrotation
						JOINT LeftToe_End
						{
							OFFSET -1.784700 -0.561700 9.474800
							CHANNELS 3 Xrotation Yrotation Zrotation
							End Site
							{
								OFFSET 0 0 0
							}
						}
					}
				}
			}
		}
	}
	JOINT RightUpLeg_virtual
	{
		OFFSET 0.000000 0.000000 0.000000
		CHANNELS 3 Xrotation Yrotation Zrotation
		JOINT RightUpLeg
		{
			OFFSET -12.883000 -6.336304 -1.092800
			CHANNELS 3 Xrotation Yrotation Zrotation
			JOINT RightLeg
			{
				OFFSET -0.524587 -46.096825 9.782800
				CHANNELS 3 Xrotation Yrotation Zrotation
				JOINT RightFoot
				{
					OFFSET 0.524587 -53.427383 -12.948300
					CHANNELS 3 Xrotation Yrotation Zrotation
					JOINT RightToeBase
					{
						OFFSET -0.192200 -14.009700 16.364100
						CHANNELS 3 Xrotation Yrotation Zrotation
						JOINT RightToe_End
						{
							OFFSET 1.784700 -0.561700 9.474800
							CHANNELS 3 Xrotation Yrotation Zrotation
							End Site
							{
								OFFSET 0 0 0
							}
						}
					}
				}
			}
		}
	}
	JOINT Spine_virtual
	{
		OFFSET 0.000000 0.000000 0.000000
		CHANNELS 3 Xrotation Yrotation Zrotation
		JOINT Spine
		{
			OFFSET 0.072000 7.257294 -0.789700
			CHANNELS 3 Xrotation Yrotation Zrotation
			JOINT Spine1
			{
				OFFSET 0.000000 12.508769 -0.658067
				CHANNELS 3 Xrotation Yrotation Zrotation
				JOINT Spine1_split
				{
					OFFSET 0.000000 12.508769 -0.658067
					CHANNELS 3 Xrotation Yrotation Zrotation
					JOINT Spine2
					{
						OFFSET 0.000000 12.508769 -0.658067
						CHANNELS 3 Xrotation Yrotation Zrotation
						JOINT Neck_virtual
						{
							OFFSET 0.000000 0.000000 0.000000
							CHANNELS 3 Xrotation Yrotation Zrotation
							JOINT Neck
							{
								OFFSET 0.000000 14.033295 7.520400
								CHANNELS 3 Xrotation Yrotation Zrotation
								JOINT Head
								{
									OFFSET 0.000000 8.198502 5.703100
									CHANNELS 3 Xrotation Yrotation Zrotation
									JOINT HeadTop_End
									{
										OFFSET 0.000000 17.760803 13.332701
										CHANNELS 3 Xrotation Yrotation Zrotation
										End Site
										{
											OFFSET 0 0 0
										}
									}
								}
							}
						}
						JOINT LeftShoulder_virtual
						{
							OFFSET 0.000000 0.000000 0.000000
							CHANNELS 3 Xrotation Yrotation Zrotation
							JOINT LeftShoulder
							{
								OFFSET 6.292450 5.785301 -0.669000
								CHANNELS 3 Xrotation Yrotation Zrotation
								JOINT LeftShoulder_split
								{
									OFFSET 6.292450 5.785301 -0.669000
									CHANNELS 3 Xrotation Yrotation Zrotation
									JOINT LeftArm
									{
										OFFSET 13.907140 -6.093903 1.965100
										CHANNELS 3 Xrotation Yrotation Zrotation
										JOINT LeftForeArm
										{
											OFFSET 34.140198 0.000000 0.000000
											CHANNELS 3 Xrotation Yrotation Zrotation
											JOINT LeftHand
											{
												OFFSET 40.960209 0.000000 0.000000
												CHANNELS 3 Xrotation Yrotation Zrotation
												End Site
												{
													OFFSET 0 0 0
												}
											}
										}
									}
								}
							}
						}
						JOINT RightShoulder_virtual
						{
							OFFSET 0.000000 0.000000 0.000000
							CHANNELS 3 Xrotation Yrotation Zrotation
							JOINT RightShoulder
							{
								OFFSET -6.292450 5.785301 -0.669000
								CHANNELS 3 Xrotation Yrotation Zrotation
								JOINT RightShoulder_split
								{
									OFFSET -6.292450 5.785301 -0.669000
									CHANNELS 3 Xrotation Yrotation Zrotation
									JOINT RightArm
									{
										OFFSET -13.907140 -6.093903 1.965100
										CHANNELS 3 Xrotation Yrotation Zrotation
										JOINT RightForeArm
										{
											OFFSET -34.140198 0.000000 0.000000
											CHANNELS 3 Xrotation Yrotation Zrotation
											JOINT RightHand
											{
												OFFSET -40.960209 0.000000 0.000000
												CHANNELS 3 Xrotation Yrotation Zrotation
												End Site
												{
													OFFSET 0 0 0
												}
											}
										}
									}
								}
							}
						}
					}
				}
			}
		}
	}
}
MOTION
Frames: 8
Frame Time: 0.03333333
1.146446 116.122711 -0.568188 0.000000 0.000000 0.000000 -3.933217 -6.144892 -3.175308 -15.900715 12.867347 13.863277 19.729944 3.818960 2.508165 -1.221731 1.170355 -8.600651 -1.121931 0.155448 -1.065609 0.000000 0.000000 0.000000 -3.595246 -4.277477 -3.246688 -2.313842 -9.221392 -0.645069 9.075240 -7.589622 -3.470537 1.046569 -1.276486 3.898867 -7.491283 0.122039 0.485737 0.000000 0.000000 0.000000 -4.145437 -6.060305 -3.494592 2.903130 0.509603 2.810413 1.764635 0.001930 1.794067 1.094275 -0.251390 -0.052081 0.000000 0.000000 0.000000 1.309247 0.481489 1.660713 6.065870 1.131390 -0.131566 -5.368641 0.793367 -0.924996 0.000000 0.000000 0.000000 1.064345 0.606353 1.453978 1.738243 -15.510349 -12.773639 -2.694120 -0.428031 -1.433797 8.761382 -20.122581 -68.136854 -1.856423 -2.642911 0.143664 0.000000 0.000000 0.000000 1.403237 0.514202 1.668852 1.878602 12.069439 15.529702 0.344907 2.538303 -0.991461 12.132304 28.024215 57.445989 0.463275 11.097780 0.782875 0.000000 0.000000 0.000000 
1.265146 116.131447 -0.560402 0.000000 0.000000 0.000000 -3.929142 -6.295467 -3.165020 -15.852138 12.834501 13.862411 19.827409 3.840009 2.455171 -1.295425 1.186497 -8.654839 -1.125884 0.152778 -1.072413 0.000000 0.000000 0.000000 -3.574552 -4.344311 -3.227514 -2.327335 -9.340113 -0.676552 8.995564 -7.487504 -3.503230 1.137441 -1.338799 3.858225 -7.362210 0.095388 0.520324 0.000000 0.000000 0.000000 -4.157711 -6.234694 -3.519114 2.917150 0.488938 2.817145 1.756424 -0.014644 1.800530 1.067071 -0.218080 -0.066184 0.000000 0.000000 0.000000 1.309422 0.482126 1.660263 6.082671 1.160330 -0.096019 -5.405926 0.881323 -0.943577 0.000000 0.000000 0.000000 1.087418 0.589811 1.469535 1.729053 -15.569619 -12.775436 -2.689503 -0.527262 -1.475377 8.673659 -20.125844 -68.203052 -1.862955 -2.712187 0.147736 0.000000 0.000000 0.000000 1.393345 0.502941 1.688149 1.857620 12.091386 15.580104 0.283756 2.539879 -0.973030 12.203258 28.040590 57.348215 0.481176 10.899648 0.817741 0.000000 0.000000 0.000000 
1.365913 116.145103 -0.566574 0.000000 0.000000 0.000000 -3.964889 -6.587408 -3.177842 -15.768414 12.811215 13.937069 20.042495 3.921145 2.379753 -1.456271 1.231447 -8.722204 -1.129901 0.152063 -1.085498 0.000000 0.000000 0.000000 -3.612537 -4.503175 -3.227406 -2.420323 -9.462494 -0.726506 9.017136 -7.248329 -3.535604 1.175395 -1.493415 3.812271 -7.222671 0.074588 0.551723 0.000000 0.000000 0.000000 -4.193265 -6.520574 -3.556451 2.944031 0.478308 2.846415 1.748132 -0.037998 1.801851 1.031435 -0.189560 -0.082675 0.000000 0.000000 0.000000 1.305347 0.473733 1.654483 6.121628 1.211452 -0.059694 -5.464250 1.048412 -1.015027 0.000000 0.000000 0.000000 1.106784 0.569545 1.479766 1.714990 -15.640378 -12.778723 -2.608887 -0.592699 -1.533881 8.608686 -20.014831 -68.287022 -1.845488 -2.778256 0.151149 0.000000 0.000000 0.000000 1.374787 0.487358 1.706710 1.839043 12.183927 15.606356 0.201872 2.556842 -0.961771 12.330622 28.010321 57.209835 0.455331 10.729687 0.883222 0.000000 0.000000 0.000000 
1.433110 116.160500 -0.586857 0.000000 0.000000 0.000000 -4.037972 -6.967089 -3.205819 -15.653059 12.797948 14.069536 20.306497 4.058577 2.287713 -1.679376 1.295631 -8.797795 -1.134618 0.152731 -1.099777 0.000000 0.000000 0.000000 -3.691667 -4.738698 -3.238799 -2.595676 -9.582429 -0.780738 9.165654 -6.878402 -3.557041 1.198773 -1.717403 3.802207 -7.112075 0.058534 0.574082 0.000000 0.000000 0.000000 -4.247630 -6.884216 -3.604551 2.982021 0.479432 2.895760 1.743455 -0.060844 1.799061 1.014563 -0.184864 -0.070858 0.000000 0.000000 0.000000 1.294528 0.461393 1.644516 6.169479 1.274462 -0.024481 -5.537155 1.261228 -1.116755 0.000000 0.000000 0.000000 1.123793 0.548946 1.484766 1.693922 -15.717396 -12.783352 -2.499772 -0.574842 -1.598972 8.574031 -19.776415 -68.358179 -1.815747 -2.810713 0.153450 0.000000 0.000000 0.000000 1.356490 0.470126 1.721451 1.823853 12.335760 15.595156 0.126225 2.575104 -0.952290 12.505956 27.989702 57.051470 0.406587 10.605707 0.956681 0.000000 0.000000 0.000000 
1.477954 116.160034 -0.630455 0.000000 0.000000 0.000000 -4.135958 -7.385390 -3.247604 -15.496384 12.791624 14.240101 20.556566 4.243186 2.186477 -1.923647 1.363901 -8.881205 -1.141375 0.152061 -1.111019 0.000000 0.000000 0.000000 -3.794776 -5.038802 -3.261629 -2.840851 -9.694790 -0.818248 9.411978 -6.396737 -3.578358 1.208427 -2.005765 3.832245 -7.076249 0.044677 0.579416 0.000000 0.000000 0.000000 -4.322452 -7.311747 -3.662716 3.027888 0.493485 2.961023 1.745654 -0.076616 1.794514 1.020091 -0.211288 -0.047350 0.000000 0.000000 0.000000 1.279939 0.452148 1.630817 6.211479 1.340761 0.011225 -5.613792 1.477699 -1.216444 0.000000 0.000000 0.000000 1.143617 0.532673 1.485906 1.668492 -15.795719 -12.776163 -2.375410 -0.471053 -1.668633 8.542016 -19.451045 -68.397849 -1.786987 -2.808328 0.151156 0.000000 0.000000 0.000000 1.347406 0.457462 1.730702 1.812845 12.530809 15.531833 0.038337 2.578851 -0.938590 12.736534 28.048647 56.872820 0.362161 10.547991 1.014889 0.000000 0.000000 0.000000 
1.514449 116.137665 -0.680382 0.000000 0.000000 0.000000 -4.243973 -7.810011 -3.300107 -15.295411 12.783375 14.425856 20.763164 4.460141 2.086062 -2.140685 1.420705 -8.973492 -1.157467 0.150077 -1.116668 0.000000 0.000000 0.000000 -3.901599 -5.375553 -3.293469 -3.120133 -9.797333 -0.824168 9.739357 -5.842600 -3.608640 1.169752 -2.364683 3.855680 -7.082295 0.030365 0.571701 0.000000 0.000000 0.000000 -4.417818 -7.762572 -3.728666 3.076196 0.518473 3.036956 1.756348 -0.078981 1.792040 1.030818 -0.276867 -0.013819 0.000000 0.000000 0.000000 1.266424 0.452220 1.616327 6.245636 1.402839 0.042548 -5.678732 1.643123 -1.291420 0.000000 0.000000 0.000000 1.171776 0.523515 1.485334 1.642842 -15.865433 -12.747877 -2.266034 -0.308882 -1.767678 8.501507 -19.087602 -68.400554 -1.766457 -2.771756 0.144285 0.000000 0.000000 0.000000 1.349489 0.453284 1.736213 1.804384 12.752448 15.417557 -0.049867 2.576047 -0.913867 13.002353 28.213913 56.702892 0.343000 10.567815 1.037351 0.000000 0.000000 0.000000 
1.549745 116.112213 -0.725151 0.000000 0.000000 0.000000 -4.363042 -8.253986 -3.358715 -15.048768 12.767977 14.615722 20.924326 4.697185 2.000460 -2.296776 1.453522 -9.072790 -1.176997 0.147229 -1.117395 0.000000 0.000000 0.000000 -4.007490 -5.755097 -3.332844 -3.420760 -9.896352 -0.793614 10.130712 -5.262630 -3.645451 1.076491 -2.797554 3.809891 -7.054963 0.016028 0.560926 0.000000 0.000000 0.000000 -4.536384 -8.217826 -3.800622 3.122117 0.548671 3.114249 1.772310 -0.068808 1.794867 1.034941 -0.377799 0.003679 0.000000 0.000000 0.000000 1.256015 0.462553 1.602921 6.281361 1.456888 0.070549 -5.727073 1.722742 -1.337725 0.000000 0.000000 0.000000 1.210187 0.520813 1.485271 1.625231 -15.921791 -12.683842 -2.194999 -0.100979 -1.872388 8.445070 -18.718186 -68.385555 -1.752370 -2.701012 0.133105 0.000000 0.000000 0.000000 1.367966 0.459309 1.744286 1.804632 12.984462 15.269434 -0.151032 2.569439 -0.871272 13.244709 28.435428 56.555916 0.348808 10.707863 1.018149 0.000000 0.000000 0.000000 
1.589803 116.092072 -0.755264 0.000000 0.000000 0.000000 -4.479949 -8.740323 -3.419523 -14.761871 12.738538 14.800825 21.043797 4.957438 1.937408 -2.401305 1.468028 -9.162969 -1.181756 0.142481 -1.116216 0.000000 0.000000 0.000000 -4.119223 -6.164133 -3.377594 -3.740276 -9.996864 -0.737128 10.562444 -4.674258 -3.687194 0.953654 -3.289398 3.681852 -6.954796 0.002347 0.558396 0.000000 0.000000 0.000000 -4.670471 -8.673888 -3.876837 3.159429 0.578162 3.184182 1.784310 -0.047874 1.806390 1.049392 -0.471813 -0.004476 0.000000 0.000000 0.000000 1.248161 0.479255 1.597318 6.327283 1.499360 0.088885 -5.755239 1.704608 -1.370992 0.000000 0.000000 0.000000 1.254394 0.522516 1.487963 1.620951 -15.959557 -12.576006 -2.142584 0.094887 -1.941550 8.371384 -18.373229 -68.388362 -1.732069 -2.614436 0.116905 0.000000 0.000000 0.000000 1.405161 0.476002 1.760330 1.811748 13.214953 15.106382 -0.250573 2.546594 -0.797341 13.315854 28.610148 56.473285 0.367515 11.030405 0.962836 0.000000 0.000000 0.000000 
